<svg id="Layer_1" data-name="Layer 1" xmlns="http://www.w3.org/2000/svg" xmlns:xlink="http://www.w3.org/1999/xlink" viewBox="0 0 480 480"><defs><style>.cls-1,.cls-11,.cls-14,.cls-16,.cls-8,.cls-9{fill:none;}.cls-2,.cls-7{fill:#c6dd7f;}.cls-2,.cls-3,.cls-4{mix-blend-mode:multiply;}.cls-3,.cls-5{fill:#e9ddb7;}.cls-4,.cls-6{fill:#a6d0e4;}.cls-8,.cls-9{stroke:#000;}.cls-11,.cls-14,.cls-16,.cls-8,.cls-9{stroke-miterlimit:10;}.cls-8{stroke-width:9.14px;}.cls-9{stroke-width:5.49px;}.cls-10{font-size:36.57px;font-family:Arial-Black, Arial;font-weight:800;}.cls-11,.cls-14,.cls-16{stroke:#fff;}.cls-11{stroke-width:0.46px;}.cls-12{fill:#b3b3b3;}.cls-13{fill:#d1d3d4;}.cls-14{stroke-width:1.83px;}.cls-15{fill:#fff;}.cls-16{stroke-width:2.12px;}.cls-17{fill:url(#Alyssa);}</style><pattern id="Alyssa" data-name="Alyssa" width="144.13" height="138.36" patternTransform="translate(-153.76 -683.62) scale(1.76)" patternUnits="userSpaceOnUse" viewBox="0 0 144.13 138.36"><rect class="cls-1" width="144.13" height="138.36"/><path class="cls-2" d="M211.07,158.52c-11.76-1.38-19.37.35-22.65,3.11-3,2.55-5,5.41-2.25,11.94,2.94,7.09,1.53,14.73-5.53,15.91-6.23,1-10.9-4.85-11.24-12.28-.24-5.18-1.91-8.3-5.54-7.61s-4.63,5.9-3.63,11.76c1.38,8.13,5.53,11.76,6.23,20.23.49,6.06-2.94,13.66-12.46,15-9.3,1.35-15.91-4.33-16.6-10.55-.73-6.59,3.63-10.9,3.11-17.64s-4-10.17-5.87-17.29c-2.77-10.55,1.21-19,7.78-22.66,14.74-8.15,22.83,3.64,36,1.56,10.89-1.73,23.35-18.16,33-19.54,8.23-1.18,13.83,4.66,15,14S221.72,159.78,211.07,158.52Zm-42.19.52a4.15,4.15,0,1,0-4.15,4.15A4.15,4.15,0,0,0,168.88,159Zm49.46-15.39a1.73,1.73,0,1,0-1.73,1.73A1.73,1.73,0,0,0,218.34,143.65Z"/><path class="cls-3" d="M48.83,139.33c0,7.17,4.59,13.82-1,16.34-8.5,3.83-28-14.34-28-36.17,0-12,8.67-19,17.84-19,12.33,0,18,8.17,18,17.5S48.83,131.14,48.83,139.33ZM43.42,134A2.08,2.08,0,1,0,41.35,136,2.07,2.07,0,0,0,43.42,134Z"/><path class="cls-4" d="M123.53,162.83c-7.87,2.74-19.44-15.3-17.67-27,1.24-8.23,7.12-13.19,13.09-14.22,7.52-1.29,12.9,2.6,13.3,7.25.54,6.3-3.63,7.51-4.22,14.95C127.46,150.93,131.72,160,123.53,162.83Zm-3.79-27.51a2.6,2.6,0,1,0-2.59,2.59A2.59,2.59,0,0,0,119.74,135.32Z"/><path class="cls-3" d="M19.39,140.36a2.6,2.6,0,1,1-2.6-2.59A2.59,2.59,0,0,1,19.39,140.36Z"/><path class="cls-4" d="M84.61,132.64c.74,8.1,12.67,7,17.9,14.21,10.52,14.48-1.22,46.37-21.63,46.37-11.74,0-24.21-9.72-24.21-29.22,0-15.83,10.16-21.5,8.25-42.17-1-10.83-12.5-20.34-12.5-34.75C52.42,81.16,56,73.64,64,73.64c7,0,10.82,6,10.82,12.9,0,6.79-5.38,15.74,1.38,19,5.24,2.57,13.21-4.77,19.5-6.75,5.19-1.63,12.38.23,14.75,8.5,2.53,8.88-3.26,14.75-11.6,16.7C92.51,125.5,84,126.2,84.61,132.64Zm-16-30.56a3.29,3.29,0,1,0-3.28,3.29A3.29,3.29,0,0,0,68.62,102.08Zm26,9.7a2.33,2.33,0,1,0-2.33-2.33A2.34,2.34,0,0,0,94.61,111.78Zm-20,59.67a3.29,3.29,0,1,0-3.28,3.28A3.28,3.28,0,0,0,74.62,171.45Z"/><path class="cls-2" d="M66.94,158.52c-11.76-1.38-19.37.35-22.65,3.11-3,2.55-5,5.41-2.25,11.94,2.94,7.09,1.53,14.73-5.53,15.91-6.23,1-10.9-4.85-11.24-12.28-.24-5.18-1.91-8.3-5.54-7.61s-4.63,5.9-3.63,11.76c1.38,8.13,5.54,11.76,6.23,20.23.49,6.06-2.94,13.66-12.45,15C.57,218-6,212.3-6.73,206.08c-.73-6.59,3.63-10.9,3.12-17.64s-4-10.17-5.88-17.29c-2.77-10.55,1.21-19,7.78-22.66,14.74-8.15,22.83,3.64,36,1.56,10.89-1.73,23.35-18.16,33-19.54,8.23-1.18,13.83,4.66,15,14S77.59,159.78,66.94,158.52ZM24.75,159a4.15,4.15,0,1,0-4.15,4.15A4.15,4.15,0,0,0,24.75,159Zm49.46-15.39a1.73,1.73,0,1,0-1.73,1.73A1.73,1.73,0,0,0,74.21,143.65Z"/><path class="cls-4" d="M190.32,112c0,6.22-4.15,10.72-8.65,11.58s-8.31-1.28-13,1.21c-4.84,2.6-7.09,11.07-16.77,11.07-8,0-15.22-7.95-15.22-18.85,0-20.23,13.14-29.22,25.6-29.22C178.91,87.78,190.32,100.4,190.32,112ZM170.61,97.63a3.81,3.81,0,1,0-3.81,3.81A3.81,3.81,0,0,0,170.61,97.63Z"/><path class="cls-2" d="M211.07,20.16c-11.76-1.38-19.37.34-22.65,3.11-3,2.55-5,5.41-2.25,11.93,2.94,7.09,1.53,14.74-5.53,15.91-6.23,1-10.9-4.84-11.24-12.27-.24-5.19-1.91-8.3-5.54-7.61s-4.63,5.9-3.63,11.76c1.38,8.12,5.53,11.76,6.23,20.23.49,6-2.94,13.66-12.46,15-9.3,1.36-15.91-4.32-16.6-10.54-.73-6.59,3.63-10.9,3.11-17.64s-4-10.17-5.87-17.3c-2.77-10.55,1.21-19,7.78-22.65,14.74-8.15,22.83,3.64,36,1.55,10.89-1.72,23.35-18.15,33-19.54,8.23-1.17,13.83,4.67,15,14S221.72,21.41,211.07,20.16Zm-42.19.52a4.15,4.15,0,1,0-4.15,4.15A4.15,4.15,0,0,0,168.88,20.68ZM218.34,5.29A1.73,1.73,0,1,0,216.61,7,1.73,1.73,0,0,0,218.34,5.29Z"/><path class="cls-4" d="M31.83,83.64c-13.95,2-21.16-13.33-17.66-20.33,3.66-7.34,12.12-4.17,19.5-4.17,9.66,0,16.36-7.57,20.41-2.25C58.33,62.47,49.07,81.18,31.83,83.64Zm.53-17.48a2.25,2.25,0,1,0-2.25,2.25A2.25,2.25,0,0,0,32.36,66.16Z"/><path class="cls-3" d="M48.83,1c0,7.17,4.59,13.82-1,16.33-8.5,3.84-28-14.33-28-36.16,0-12,8.67-19,17.84-19,12.33,0,18,8.16,18,17.5S48.83-7.22,48.83,1ZM43.42-4.4a2.07,2.07,0,0,0-2.07-2.07A2.08,2.08,0,0,0,39.27-4.4a2.08,2.08,0,0,0,2.08,2.08A2.08,2.08,0,0,0,43.42-4.4Z"/><path class="cls-4" d="M46.19,112c0,6.22-4.15,10.72-8.65,11.58s-8.31-1.28-13,1.21c-4.84,2.6-7.09,11.07-16.77,11.07-8,0-15.22-7.95-15.22-18.85,0-20.23,13.15-29.22,25.6-29.22C34.78,87.78,46.19,100.4,46.19,112ZM26.48,97.63a3.81,3.81,0,1,0-3.81,3.81A3.81,3.81,0,0,0,26.48,97.63Z"/><path class="cls-2" d="M45.5,88.3a2.42,2.42,0,1,1-2.42-2.43A2.42,2.42,0,0,1,45.5,88.3Z"/><path class="cls-4" d="M129.2,69.79c-3.19,4.68,1,10.72-1.38,15.22s-6.75,5-9.86,2.59c-3.64-2.82-3.41-6.64-8.3-8.82-5.53-2.46-18,2.25-19.72-7.26-.87-4.81,2.38-8.57,7.27-9.68,6.05-1.39,9.35-.18,15.39-3.12s11.24-9,22.13-12.1c10.41-3,16.08,1.55,16.61,5.88C152.37,61,134.21,62.45,129.2,69.79ZM127,62.35a2.25,2.25,0,1,0-2.25,2.25A2.24,2.24,0,0,0,127,62.35Z"/><path class="cls-3" d="M156.17,109c0,17.17-14.5,25.5-27,22.83-10.27-2.19-12.84-17.33-16.67-26.16-3.71-8.56-8.83-22.5-20.17-22.5S79.5,97.64,68.67,97.64c-11,0-24.5-15.67-24.5-39.67C44.17,43.3,54,26.52,65,27.3,76.67,28.14,69.5,47,80.33,47c9.5,0,7.86-16.26,9.17-23.33,1.67-9,6.83-14.17,18.5-13.17,14.44,1.24,22.33,13.5,18.87,23.35-4,11.45-23.87,17.32-21.54,30.49,1.35,7.59,13,12,26,16.16C145.86,85.13,156.17,91.8,156.17,109Zm-45-75.84a3.29,3.29,0,1,0,3.29-3.29A3.29,3.29,0,0,0,111.21,33.13ZM64.52,58a1.73,1.73,0,1,0-1.73,1.73A1.73,1.73,0,0,0,64.52,58ZM82,68.75a3.81,3.81,0,1,0-3.81,3.81A3.8,3.8,0,0,0,82,68.75Zm19.89-15.56a1.56,1.56,0,1,0-1.56,1.56A1.56,1.56,0,0,0,101.88,53.19Zm29.64,54.69a3.18,3.18,0,1,0-3.17,3.18A3.17,3.17,0,0,0,131.52,107.88Z"/><path class="cls-4" d="M123.53,24.47c-7.87,2.73-19.44-15.3-17.67-27C107.1-10.78,113-15.74,119-16.77c7.52-1.3,12.9,2.6,13.3,7.24.54,6.31-3.63,7.52-4.22,15C127.46,12.57,131.72,21.62,123.53,24.47ZM119.74-3a2.59,2.59,0,0,0-2.59-2.6,2.59,2.59,0,0,0-2.6,2.6,2.59,2.59,0,0,0,2.6,2.59A2.59,2.59,0,0,0,119.74-3Z"/><path class="cls-3" d="M19.39,2a2.6,2.6,0,1,1-2.6-2.59A2.59,2.59,0,0,1,19.39,2Z"/><path class="cls-3" d="M153.38,88.74c0-8.41-5.07-15.23-11.34-15.23s-11.33,6.82-11.33,15.23,5.07,12.44,11.33,12.44S153.38,97.15,153.38,88.74Z"/><path class="cls-4" d="M84.61-5.72c.74,8.1,12.67,7,17.9,14.21C113,23,101.29,54.86,80.88,54.86c-11.74,0-24.21-9.72-24.21-29.22,0-15.84,10.16-21.5,8.25-42.17-1-10.83-12.5-20.34-12.5-34.75C52.42-57.2,56-64.73,64-64.73c7,0,10.82,6,10.82,12.9s-5.38,15.75,1.38,19c5.24,2.57,13.21-4.77,19.5-6.75,5.19-1.63,12.38.23,14.75,8.5,2.53,8.88-3.26,14.75-11.6,16.7C92.51-12.86,84-12.16,84.61-5.72Zm-16-30.56a3.28,3.28,0,0,0-3.28-3.29,3.29,3.29,0,0,0-3.29,3.29A3.29,3.29,0,0,0,65.34-33,3.28,3.28,0,0,0,68.62-36.28Zm26,9.69a2.33,2.33,0,0,0,2.33-2.33,2.33,2.33,0,0,0-2.33-2.32,2.32,2.32,0,0,0-2.33,2.32A2.33,2.33,0,0,0,94.61-26.59Zm-20,59.68a3.29,3.29,0,1,0-3.28,3.28A3.28,3.28,0,0,0,74.62,33.09Z"/><path class="cls-2" d="M66.94,20.16c-11.76-1.38-19.37.34-22.65,3.11-3,2.55-5,5.41-2.25,11.93,2.94,7.09,1.53,14.74-5.53,15.91-6.23,1-10.9-4.84-11.24-12.27-.24-5.19-1.91-8.3-5.54-7.61S15.1,37.13,16.1,43c1.38,8.12,5.54,11.76,6.23,20.23.49,6-2.94,13.66-12.45,15C.57,79.62-6,73.94-6.73,67.72c-.73-6.59,3.63-10.9,3.12-17.64s-4-10.17-5.88-17.3c-2.77-10.55,1.21-19,7.78-22.65C13,2,21.12,13.77,34.26,11.68,45.15,10,57.61-6.47,67.29-7.86c8.23-1.17,13.83,4.67,15,14S77.59,21.41,66.94,20.16Zm-42.19.52a4.15,4.15,0,1,0-4.15,4.15A4.15,4.15,0,0,0,24.75,20.68ZM74.21,5.29A1.73,1.73,0,1,0,72.48,7,1.73,1.73,0,0,0,74.21,5.29Z"/><path class="cls-2" d="M130.24,42.47a1.39,1.39,0,1,1-1.39-1.39A1.38,1.38,0,0,1,130.24,42.47Z"/><path class="cls-5" d="M135.77,4.08a2.25,2.25,0,1,1-2.25-2.25A2.25,2.25,0,0,1,135.77,4.08Z"/><path class="cls-6" d="M52.24,27.25A1.21,1.21,0,1,1,51,26,1.21,1.21,0,0,1,52.24,27.25Z"/><path class="cls-6" d="M48.61,95.73a1.38,1.38,0,1,1-1.38-1.38A1.38,1.38,0,0,1,48.61,95.73Z"/><path class="cls-3" d="M133.18,73.77A1.21,1.21,0,1,1,132,72.56,1.21,1.21,0,0,1,133.18,73.77Z"/><path class="cls-7" d="M95.89,91.69a3.41,3.41,0,1,1-3.41-3.4A3.41,3.41,0,0,1,95.89,91.69Z"/><path class="cls-3" d="M100.87,131.55a2.1,2.1,0,1,1-2.1-2.1A2.1,2.1,0,0,1,100.87,131.55Z"/><path class="cls-3" d="M62.07,125.25a1.58,1.58,0,1,1-3.15,0,1.58,1.58,0,0,1,3.15,0Z"/><circle class="cls-7" cx="133.12" cy="11.21" r="2.62"/><circle class="cls-4" cx="123.15" cy="46.07" r="2.36"/><path class="cls-5" d="M27.72,52.63A2.62,2.62,0,1,1,25.1,50,2.62,2.62,0,0,1,27.72,52.63Z"/><path class="cls-4" d="M22.74,45.55a1.31,1.31,0,1,1-1.31-1.31A1.31,1.31,0,0,1,22.74,45.55Z"/><path class="cls-3" d="M87,97.46a1.57,1.57,0,1,1-1.57-1.57A1.57,1.57,0,0,1,87,97.46Z"/><path class="cls-4" d="M-14.93,69.79c-3.19,4.68,1,10.72-1.38,15.22s-6.75,5-9.86,2.59c-3.64-2.82-3.41-6.64-8.3-8.82-5.53-2.46-18,2.25-19.72-7.26-.87-4.81,2.38-8.57,7.27-9.68,6.05-1.39,9.35-.18,15.39-3.12s11.24-9,22.14-12.1c10.4-3,16.07,1.55,16.6,5.88C8.24,61-9.92,62.45-14.93,69.79Zm-2.25-7.44a2.24,2.24,0,0,0-2.25-2.24,2.24,2.24,0,0,0-2.24,2.24,2.24,2.24,0,0,0,2.24,2.25A2.24,2.24,0,0,0-17.18,62.35Z"/><path class="cls-3" d="M12,109c0,17.17-14.5,25.5-27,22.83-10.27-2.19-12.84-17.33-16.67-26.16-3.71-8.56-8.83-22.5-20.17-22.5s-12.83,14.5-23.66,14.5C-86.46,97.64-100,82-100,58c0-14.67,9.8-31.45,20.83-30.67C-67.46,28.14-74.63,47-63.8,47c9.5,0,7.86-16.26,9.17-23.33,1.67-9,6.83-14.17,18.5-13.17C-21.69,11.71-13.8,24-17.26,33.82c-4,11.45-23.87,17.32-21.54,30.49,1.35,7.59,13,12,26,16.16C1.73,85.13,12,91.8,12,109ZM-32.91,33.13a3.28,3.28,0,0,0,3.28,3.28,3.28,3.28,0,0,0,3.29-3.28,3.29,3.29,0,0,0-3.29-3.29A3.28,3.28,0,0,0-32.91,33.13ZM-79.61,58a1.73,1.73,0,0,0-1.73-1.73A1.74,1.74,0,0,0-83.07,58a1.73,1.73,0,0,0,1.73,1.73A1.72,1.72,0,0,0-79.61,58Zm17.47,10.72A3.8,3.8,0,0,0-65.95,65a3.8,3.8,0,0,0-3.8,3.8,3.81,3.81,0,0,0,3.8,3.81A3.81,3.81,0,0,0-62.14,68.75Zm19.89-15.56a1.56,1.56,0,0,0-1.56-1.56,1.56,1.56,0,0,0-1.56,1.56,1.56,1.56,0,0,0,1.56,1.56A1.56,1.56,0,0,0-42.25,53.19Zm29.64,54.69a3.17,3.17,0,0,0-3.17-3.17A3.17,3.17,0,0,0-19,107.88a3.18,3.18,0,0,0,3.18,3.18A3.17,3.17,0,0,0-12.61,107.88Z"/><path class="cls-3" d="M9.26,88.74c0-8.41-5.08-15.23-11.34-15.23s-11.34,6.82-11.34,15.23,5.07,12.44,11.34,12.44S9.26,97.15,9.26,88.74Z"/></pattern></defs><path class="cls-8" d="M17.89,276.75C35.44,383.59,128.19,465.11,240,465.11s204.56-81.52,222.11-188.36"/><path class="cls-9" d="M437.72,276.75C420.45,370.26,338.5,441.08,240,441.08S59.55,370.26,42.28,276.75"/><path class="cls-8" d="M462.11,203.25C444.56,96.41,351.81,14.89,240,14.89S35.44,96.41,17.89,203.25"/><path class="cls-9" d="M42.28,203.25C59.55,109.74,141.5,38.92,240,38.92s180.45,70.82,197.72,164.33"/><text class="cls-10" transform="translate(3.32 250.1)">20</text><text class="cls-10" transform="translate(427.9 250.54)">07</text><path d="M99.36,116.9a168.91,168.91,0,0,1,14.39-15.58,144.72,144.72,0,0,1,39.52,2.26q-8.45-10.23-17.68-20A180.08,180.08,0,0,1,154.52,72.2c9,13.18,17.47,26.57,25.48,40.38a131.1,131.1,0,0,0-13.59,7.81,184,184,0,0,0-35.24-5.6q10.19,8.56,19.49,17.78A124.48,124.48,0,0,0,140,143.47,382.24,382.24,0,0,0,99.36,116.9Z"/><path d="M168.71,65.56A230.14,230.14,0,0,1,231,51.33c.26,3.34.51,6.69.76,10a262.76,262.76,0,0,0-37.1,6c.83,2.38,1.65,4.75,2.46,7.13A156.55,156.55,0,0,1,229.76,69q.44,4.78.84,9.57a148.31,148.31,0,0,0-30.39,5.05q1.44,4.44,2.84,8.88a139.24,139.24,0,0,1,31.48-4.85c.21,3.55.42,7.1.61,10.66a179.22,179.22,0,0,0-45,9.72C183.42,93.63,176.31,79.52,168.71,65.56Z"/><path d="M245.37,51.07a191.29,191.29,0,0,1,22.44,1.75,203.79,203.79,0,0,1,19.52,30.79q4.35-12.35,9.1-24.59a189.29,189.29,0,0,1,21.15,7.73c-7.76,13.86-15.07,27.86-22,42.16a135.86,135.86,0,0,0-15-5.29c-4-10.77-9.9-20.25-16.15-29.81q-2.1,12.78-4,25.58a140.16,140.16,0,0,0-16-1.21Q244.89,74.61,245.37,51.07Z"/><path d="M316,92.27c4.11-6.6,10.31-10.32,18.73-10.41,10.68-.13,20.61,5.66,27.67,11.57,6.4,5.36,14.16,13.65,14.79,23.59.45,7.1-3.31,12.39-10,16.42a32.14,32.14,0,0,1-13.85,4.89,30.06,30.06,0,0,1-12.93-1.81,46.26,46.26,0,0,1-13.12-7.89c-4.66-3.75-8.24-7.21-10.66-10.76A24.65,24.65,0,0,1,312.32,106,21.9,21.9,0,0,1,316,92.27Zm17.15,10.2c-3.13,3.71-4.33,7-3.87,10s2.15,5.42,5.05,7.76,5.91,3.64,9,3.69,6.73-1.6,10.95-5c3.55-2.85,5.35-5.76,5.11-8.85s-2.09-6.2-5.61-9.11a16.47,16.47,0,0,0-10.55-4.14C339.64,96.8,336.27,98.74,333.11,102.47Z"/><path d="M106.65,308.4q1.91,4.89,4.25,9.64-10.52,3.72-21.7,6.48a141.81,141.81,0,0,0,9.44,17.05c-2.33.91-4.67,1.78-7,2.63-5.65-9.67-11-19.29-14.6-30A198.27,198.27,0,0,0,106.65,308.4Z"/><path d="M107.4,341.18a18.24,18.24,0,0,1,13.16-.95c4.35,1.3,8.24,4,12.19,8.2s6.43,8.16,7,12.06S139,368,135.4,371.11A14.91,14.91,0,0,1,127,375a19,19,0,0,1-9.68-1.84,31.53,31.53,0,0,1-10.17-7.77,29.32,29.32,0,0,1-6.42-10.13,11.49,11.49,0,0,1,.19-8.25C102,344.53,104.2,342.63,107.4,341.18Zm7.24,9.68c-2.64,1.47-4.09,3.08-4.26,4.9s.65,3.79,2.48,5.8a10.81,10.81,0,0,0,6.1,3.65c2.15.36,4.58-.45,7.26-2.41,2.26-1.64,3.34-3.38,3.34-5.16a7.75,7.75,0,0,0-2.49-5.28,9.79,9.79,0,0,0-5.4-3.13C119.63,348.84,117.3,349.37,114.64,350.86Z"/><path d="M162.28,391.92q4.44,3.57,9.25,6.87a13.94,13.94,0,0,1-6.31,3.2,18.82,18.82,0,0,1-7.83-.07,39.06,39.06,0,0,1-19-11.38,12.81,12.81,0,0,1-2.95-8c0-2.9,1.37-5.56,4-8.06a17,17,0,0,1,12-4.93c4.45,0,9,1.47,14.17,4.35,4,2.26,6.91,4.47,8.62,6.87a12.79,12.79,0,0,1,2.32,8.37q-5.43-1.33-10.81-3.08a5.26,5.26,0,0,0,0-2.14,6.11,6.11,0,0,0-1.3-2.46,9,9,0,0,0-2.54-2,9.63,9.63,0,0,0-6.91-1.26,9.83,9.83,0,0,0-5.16,3.47c-2.13,2.43-3,4.47-2.6,6.14s1.81,3.22,4.13,4.56a10.42,10.42,0,0,0,6,1.69A9.15,9.15,0,0,0,162.28,391.92Z"/><path d="M186.14,383.9q5.42,2,11,3.58-1.83,5.07-3.73,10.13A128.39,128.39,0,0,0,209,390.32a149.9,149.9,0,0,0,15.38,2.23,129.33,129.33,0,0,1-16.18,8.54,134.34,134.34,0,0,0,13.42,19.69c-6-.55-11.9-1.39-17.76-2.52a137.4,137.4,0,0,1-6-13.26q-4.07,1.46-8.36,2.7c-.85,2.16-1.72,4.32-2.59,6.48q-6.94-2-13.68-4.59C177.79,401.16,182.09,392.57,186.14,383.9Z"/><path d="M224.91,411.64q6.48.25,12.94,0a5,5,0,0,0,1.73,3.09,11.45,11.45,0,0,0,10.77.46c1-.66,1.49-1.37,1.41-2.14s-.64-1.35-1.68-1.86-3.4-.9-7-1.33c-5.89-.7-10-2-12.34-3.57s-3.39-3.45-3.19-5.66a6.38,6.38,0,0,1,2.1-4A12.74,12.74,0,0,1,235,393.8a39.34,39.34,0,0,1,9.32-1.17c4.82-.18,8.53.14,11.28,1.2a9.37,9.37,0,0,1,5.69,5.76q-5.78,1.07-11.65,1.7a4.4,4.4,0,0,0-2.18-2.65,8.4,8.4,0,0,0-4.1-.7,6.52,6.52,0,0,0-3.19.71,1.88,1.88,0,0,0-1.08,1.58c0,.46.32.86.92,1.22a12.55,12.55,0,0,0,4.25.95c5.55.63,9.63,1.07,12.17,1.65a14.79,14.79,0,0,1,5.84,2.44,6.6,6.6,0,0,1,2.51,3.88,6.35,6.35,0,0,1-1.4,5.29,13.88,13.88,0,0,1-6.28,4.27,36.46,36.46,0,0,1-11.23,2c-8.06.31-13.66-.88-16.56-2.88S225,414.52,224.91,411.64Z"/><path d="M266.77,390.61A149.85,149.85,0,0,0,281.65,387a173,173,0,0,0,12.71,14.15q-.51-9-1.63-17.89a144.58,144.58,0,0,0,13.81-6.1c5.21,8.11,10.75,16.09,16.53,23.8q-5.16,2.7-10.53,5.08-5.82-9.37-11.21-18.95c1.24,7.39,2.21,14.85,2.83,22.4q-5,1.91-10.09,3.52A176.73,176.73,0,0,1,278.19,395q3.42,10.32,7.12,20.57c-3.83,1-7.7,1.88-11.6,2.64Q270,404.47,266.77,390.61Z"/><path d="M313.35,373.53q4.93-2.83,9.61-6c6.42,7.31,13.26,14.4,20.32,21.1q-5.71,4.08-11.81,7.72C325.15,389,319.07,381.34,313.35,373.53Z"/><path d="M327.44,364.28c8.76-7.11,17.17-14.29,24.18-23.22,2.08,1.26,4.19,2.49,6.31,3.7-2.43,3.05-5,6-7.73,8.88q9.18,6.32,19,12-4.59,5-9.66,9.71-9.19-6.54-17.74-13.6-4.47,4-9.31,7.64C330.8,367.71,329.11,366,327.44,364.28Z"/><path d="M354.66,337.14q3.24-4.33,6.06-8.9,4.71,2.14,9.58,4.1,3.27-5.4,6-11-5-1.51-9.9-3.25,2.36-4.77,4.26-9.68a198.27,198.27,0,0,0,29.65,5.84q-2.13,6.08-4.84,12-6.12-1.31-12-2.89-2.81,5.91-6.21,11.62,5.74,2.11,11.67,4-3.3,5.7-7.16,11.18A238.11,238.11,0,0,1,354.66,337.14Z"/><path d="M175.74,320.56c13.21,18.43,35.68,9.66,48.71,2l124-81.8c-13.32-25.57-35.23-46-56.53-66.15L141.81,262.82Z"/><path class="cls-11" d="M177.23,242.61,209.78,298a4.57,4.57,0,0,0,6.24,1.63l120.36-80.51a267.76,267.76,0,0,0-46.51-48l-111,65.24A4.56,4.56,0,0,0,177.23,242.61Z"/><circle class="cls-12" cx="191.77" cy="310.83" r="8.5"/><path class="cls-12" d="M141.4,231.92c-14.14,8.31-2.79,25.45-1.77,27.19l2.18,3.71,150.11-88.21-6.41-6.08c-4.2-3.4-8.32-8.38-13.31-11.21-.12.1-.2.18-.2.23Z"/><path class="cls-13" d="M272.2,157.32c5,2.83,9.11,7.81,13.31,11.21,23.2,22.1,48.28,44.08,62.94,72.23l12.34-8.15a3.67,3.67,0,0,0,1.31-5l-65.35-78.89C295.36,147.05,274.43,155.55,272.2,157.32Zm29.87,4.19,37.82,46.17a3,3,0,0,1-.28,4.15l-2,1.72a3,3,0,0,1-4.15-.27l-36.94-39c-1.06-1.22-8.8-9.21-7.59-10.28l2-3.08C292.19,159.84,301,160.3,302.07,161.51Z"/><line class="cls-14" x1="242.94" y1="270.14" x2="215.41" y2="223.29"/><line class="cls-14" x1="288.63" y1="236.91" x2="265.41" y2="197.39"/><rect class="cls-15" x="289.01" y="201.92" width="12.95" height="14.14" rx="1.21" transform="translate(-65.15 178.52) rotate(-30.44)"/><path class="cls-15" d="M289.9,209.33a3,3,0,0,1,2.54,1.45,2.9,2.9,0,0,1,.31,2.23,2.94,2.94,0,0,1-1.36,1.8,2.87,2.87,0,0,1-1.48.41,2.95,2.95,0,1,1,0-5.89m0-2.12a5,5,0,0,0-2.56.7,5.06,5.06,0,1,0,2.56-.7Z"/><rect class="cls-15" x="206.02" y="250.69" width="12.95" height="14.14" rx="1.21" transform="translate(-101.24 143.02) rotate(-30.41)"/><path class="cls-16" d="M209.67,257.91a5.52,5.52,0,0,0-.66-.51,5.06,5.06,0,0,0-5.36,8.59,5.21,5.21,0,0,0,1.81.69"/><path class="cls-15" d="M244.79,227.11c-1.82-.66-3.48-1.22-5.11-1.87-.58-.22-1.43-.5-1-1.4s1.06-.3,1.65-.19c1.48.27,3,.52,4.45.77L245,224c-.58-1-1.14-2-1.76-3a2.12,2.12,0,0,1,.12-2.61,10.81,10.81,0,0,1,5-3.75c.44-.18,1.17.14,1.69.39a2.9,2.9,0,0,1,.86.94,5.87,5.87,0,0,0,3.69,2.72c2.3.45,3.42,3.07,2.85,5.45a2.21,2.21,0,0,0,.17,1.5q3.1,5.28,6.33,10.49a2.8,2.8,0,0,0,1.39,1.07,4.46,4.46,0,0,1,3.18,5,3.64,3.64,0,0,0,.63,2.94c.89,1.47.79,1.75-.45,2.89A13.65,13.65,0,0,0,267,250c-.9,1.22-1.5,1.36-2.71.41a33.39,33.39,0,0,1-6.76-7.33,3.61,3.61,0,0,0-2.66-1.83,7.78,7.78,0,0,1-6.21-4.11c-1.25-2.31-2.74-4.49-4.07-6.77a2.58,2.58,0,0,1-.21-1.44A11.23,11.23,0,0,1,244.79,227.11Zm20.51,20.42,1.24-1.48-.27-.27c-.45.1-.95.39-1.32.26s-.84-.64-1.25-1a7.65,7.65,0,0,1,.81-.89A8.71,8.71,0,0,0,266,243.1a2.37,2.37,0,0,0-.42-3.28,2.43,2.43,0,0,0-3.48.24c-.43.49-.9.82-1.32.24-.27-.37-.17-1-.19-1.56,0-.11.18-.26.3-.34.72-.45.58-.94.19-1.56-1.06-1.7-2.07-3.43-3.1-5.16l-2.72-4.63c-.49.12-.79.21-1.1.27a1.1,1.1,0,0,1-1.43-.87c-.19-.7.24-.9.87-1.07a2.32,2.32,0,0,0,1.84-2.31,2.3,2.3,0,0,0-1.56-2.39,2.44,2.44,0,0,0-2.88.71c-.22.24-.9.44-1,.32a2.15,2.15,0,0,1-.57-1.26c0-.32.34-.67.58-1.09l-1.33-1.7c-.57.33-1,.56-1.44.85-1.47,1-1.49,1.14-.6,2.71.44.79.94,1.55,1.3,2.38a2.27,2.27,0,0,1,.2,1.55c-1.34,3.06-.54,5.69,1.45,8.13a4.62,4.62,0,0,1,.67,1.11c1.25,2.87,3.56,4.15,6.56,4.35a2.58,2.58,0,0,1,2.07,1.32A36,36,0,0,0,265.3,247.53Z"/><path class="cls-17" d="M244.79,227.11c-1.82-.66-3.48-1.22-5.11-1.87-.58-.22-1.43-.5-1-1.4s1.06-.3,1.65-.19c1.48.27,3,.52,4.45.77L245,224c-.58-1-1.14-2-1.76-3a2.12,2.12,0,0,1,.12-2.61,10.81,10.81,0,0,1,5-3.75c.44-.18,1.17.14,1.69.39a2.9,2.9,0,0,1,.86.94,5.87,5.87,0,0,0,3.69,2.72c2.3.45,3.42,3.07,2.85,5.45a2.21,2.21,0,0,0,.17,1.5q3.1,5.28,6.33,10.49a2.8,2.8,0,0,0,1.39,1.07,4.46,4.46,0,0,1,3.18,5,3.64,3.64,0,0,0,.63,2.94c.89,1.47.79,1.75-.45,2.89A13.65,13.65,0,0,0,267,250c-.9,1.22-1.5,1.36-2.71.41a33.39,33.39,0,0,1-6.76-7.33,3.61,3.61,0,0,0-2.66-1.83,7.78,7.78,0,0,1-6.21-4.11c-1.25-2.31-2.74-4.49-4.07-6.77a2.58,2.58,0,0,1-.21-1.44A11.23,11.23,0,0,1,244.79,227.11Zm20.51,20.42,1.24-1.48-.27-.27c-.45.1-.95.39-1.32.26s-.84-.64-1.25-1a7.65,7.65,0,0,1,.81-.89A8.71,8.71,0,0,0,266,243.1a2.37,2.37,0,0,0-.42-3.28,2.43,2.43,0,0,0-3.48.24c-.43.49-.9.82-1.32.24-.27-.37-.17-1-.19-1.56,0-.11.18-.26.3-.34.72-.45.58-.94.19-1.56-1.06-1.7-2.07-3.43-3.1-5.16l-2.72-4.63c-.49.12-.79.21-1.1.27a1.1,1.1,0,0,1-1.43-.87c-.19-.7.24-.9.87-1.07a2.32,2.32,0,0,0,1.84-2.31,2.3,2.3,0,0,0-1.56-2.39,2.44,2.44,0,0,0-2.88.71c-.22.24-.9.44-1,.32a2.15,2.15,0,0,1-.57-1.26c0-.32.34-.67.58-1.09l-1.33-1.7c-.57.33-1,.56-1.44.85-1.47,1-1.49,1.14-.6,2.71.44.79.94,1.55,1.3,2.38a2.27,2.27,0,0,1,.2,1.55c-1.34,3.06-.54,5.69,1.45,8.13a4.62,4.62,0,0,1,.67,1.11c1.25,2.87,3.56,4.15,6.56,4.35a2.58,2.58,0,0,1,2.07,1.32A36,36,0,0,0,265.3,247.53Z"/><path class="cls-15" d="M244.79,227.11c-1.82-.66-3.48-1.22-5.11-1.87-.58-.22-1.43-.5-1-1.4s1.06-.3,1.65-.19c1.48.27,3,.52,4.45.77L245,224c-.58-1-1.14-2-1.76-3a2.12,2.12,0,0,1,.12-2.61,10.81,10.81,0,0,1,5-3.75c.44-.18,1.17.14,1.69.39a2.9,2.9,0,0,1,.86.94,5.87,5.87,0,0,0,3.69,2.72c2.3.45,3.42,3.07,2.85,5.45a2.21,2.21,0,0,0,.17,1.5q3.1,5.28,6.33,10.49a2.8,2.8,0,0,0,1.39,1.07,4.46,4.46,0,0,1,3.18,5,3.64,3.64,0,0,0,.63,2.94c.89,1.47.79,1.75-.45,2.89A13.65,13.65,0,0,0,267,250c-.9,1.22-1.5,1.36-2.71.41a33.39,33.39,0,0,1-6.76-7.33,3.61,3.61,0,0,0-2.66-1.83,7.78,7.78,0,0,1-6.21-4.11c-1.25-2.31-2.74-4.49-4.07-6.77a2.58,2.58,0,0,1-.21-1.44A11.23,11.23,0,0,1,244.79,227.11Zm20.51,20.42,1.24-1.48-.27-.27c-.45.1-.95.39-1.32.26s-.84-.64-1.25-1a7.65,7.65,0,0,1,.81-.89A8.71,8.71,0,0,0,266,243.1a2.37,2.37,0,0,0-.42-3.28,2.43,2.43,0,0,0-3.48.24c-.43.49-.9.82-1.32.24-.27-.37-.17-1-.19-1.56,0-.11.18-.26.3-.34.72-.45.58-.94.19-1.56-1.06-1.7-2.07-3.43-3.1-5.16l-2.72-4.63c-.49.12-.79.21-1.1.27a1.1,1.1,0,0,1-1.43-.87c-.19-.7.24-.9.87-1.07a2.32,2.32,0,0,0,1.84-2.31,2.3,2.3,0,0,0-1.56-2.39,2.44,2.44,0,0,0-2.88.71c-.22.24-.9.44-1,.32a2.15,2.15,0,0,1-.57-1.26c0-.32.34-.67.58-1.09l-1.33-1.7c-.57.33-1,.56-1.44.85-1.47,1-1.49,1.14-.6,2.71.44.79.94,1.55,1.3,2.38a2.27,2.27,0,0,1,.2,1.55c-1.34,3.06-.54,5.69,1.45,8.13a4.62,4.62,0,0,1,.67,1.11c1.25,2.87,3.56,4.15,6.56,4.35a2.58,2.58,0,0,1,2.07,1.32A36,36,0,0,0,265.3,247.53Z"/></svg>